<?xml version="1.0" encoding="utf-8"?>
<!-- Generator: Adobe Illustrator 18.1.1, SVG Export Plug-In . SVG Version: 6.00 Build 0)  -->
<svg version="1.1" baseProfile="tiny" id="Layer_1" xmlns="http://www.w3.org/2000/svg" xmlns:xlink="http://www.w3.org/1999/xlink"
	 x="0px" y="0px" width="24px" height="40px" viewBox="0 0 24 40" xml:space="preserve">
<g>
	<path d="M21.6,3.5C17.2,14.4,12,27.9,3.4,36.3c-0.3,0.3,0.2,0.8,0.5,0.5c8.7-8.6,14-22,18.5-33.1C22.5,3.3,21.8,3.1,21.6,3.5
		L21.6,3.5z"/>
</g>
<g>
	<path d="M4.3,27.4c-0.6,3.3-1.3,6.5-1.8,9.8c0,0.3,0.2,0.5,0.5,0.5c3.2-0.9,6.2-2.2,9.3-3.4c0.4-0.2,0.2-0.9-0.2-0.7
		c-3.1,1.2-6.1,2.5-9.3,3.4c0.2,0.2,0.3,0.3,0.5,0.5c0.6-3.3,1.3-6.5,1.8-9.8C5.1,27.1,4.4,26.9,4.3,27.4L4.3,27.4z"/>
</g>
</svg>
