<?xml version="1.0" encoding="utf-8"?>
<!-- Generator: Adobe Illustrator 17.1.0, SVG Export Plug-In . SVG Version: 6.00 Build 0)  -->
<!DOCTYPE svg PUBLIC "-//W3C//DTD SVG 1.1//EN" "http://www.w3.org/Graphics/SVG/1.1/DTD/svg11.dtd">
<svg version="1.1" xmlns="http://www.w3.org/2000/svg" xmlns:xlink="http://www.w3.org/1999/xlink" x="0px" y="0px" width="40px"
	 height="60px" viewBox="0 0 40 60" enable-background="new 0 0 40 60" xml:space="preserve">
<g id="reg">
	<g>
		<path d="M14,26v8H6v-8H14 M14,24H6c-1.1,0-2,0.9-2,2v8c0,1.1,0.9,2,2,2h8c1.1,0,2-0.9,2-2v-8C16,24.9,15.1,24,14,24L14,24z"/>
	</g>
	<g opacity="0.6">
		<path d="M14,6v8H6V6H14 M14,4H6C4.9,4,4,4.9,4,6v8c0,1.1,0.9,2,2,2h8c1.1,0,2-0.9,2-2V6C16,4.9,15.1,4,14,4L14,4z"/>
	</g>
	<g>
		<path fill="#FFFFFF" d="M16,54c0,1.1-0.9,2-2,2H6c-1.1,0-2-0.9-2-2v-8c0-1.1,0.9-2,2-2h8c1.1,0,2,0.9,2,2V54z"/>
		<g opacity="0.3">
			<path d="M14,46v8H6v-8H14 M14,44H6c-1.1,0-2,0.9-2,2v8c0,1.1,0.9,2,2,2h8c1.1,0,2-0.9,2-2v-8C16,44.9,15.1,44,14,44L14,44z"/>
		</g>
	</g>
	<g>
		<polyline fill="none" stroke="#FFFFFF" stroke-width="4" stroke-linecap="round" stroke-miterlimit="10" points="17,44 10,52 
			7,49 		"/>
		<polyline fill="none" stroke="#231F20" stroke-width="2" stroke-linecap="round" stroke-miterlimit="10" points="17,44 10,52 
			7,49 		"/>
	</g>
</g>
<g id="darkui">
	<g>
		<g opacity="0.2">
			<path fill="#FFFFFF" d="M34,46v8h-8v-8H34 M34,44h-8c-1.1,0-2,0.9-2,2v8c0,1.1,0.9,2,2,2h8c1.1,0,2-0.9,2-2v-8
				C36,44.9,35.1,44,34,44L34,44z"/>
		</g>
	</g>
	<g>
		<g opacity="0.7">
			<path fill="#FFFFFF" d="M34,26v8h-8v-8H34 M34,24h-8c-1.1,0-2,0.9-2,2v8c0,1.1,0.9,2,2,2h8c1.1,0,2-0.9,2-2v-8
				C36,24.9,35.1,24,34,24L34,24z"/>
		</g>
	</g>
	<g>
		<g opacity="0.3">
			<path fill="#FFFFFF" d="M34,6v8h-8V6H34 M34,4h-8c-1.1,0-2,0.9-2,2v8c0,1.1,0.9,2,2,2h8c1.1,0,2-0.9,2-2V6C36,4.9,35.1,4,34,4
				L34,4z"/>
		</g>
	</g>
	<g>
		<polyline fill="none" stroke="#231F20" stroke-width="4" stroke-linecap="round" stroke-miterlimit="10" points="37,44 30,52 
			27,49 		"/>
		<polyline fill="none" stroke="#FFFFFF" stroke-width="1.5" stroke-linecap="round" stroke-miterlimit="10" points="37,44 30,52 
			27,49 		"/>
	</g>
</g>
</svg>
